# xmcd CD database file
#
# Track frame offsets:
#	150
#	13099
#	30414
#	49903
#	68296
#	91212
#	109197
#	125992
#	147123
#	166188
#	183841
#	201552
#	216807
#	235046
#	254387
#	274652
#	305052
#
# Disc length: 4500 seconds
#
# Revision: 23
# Processed by: cddbd v1.5.1PL0 Copyright (c) Steve Scherf et al.
# Submitted via: CDex 1.50
#
DISCID=ef119211
DTITLE=Various Artist - The Official ATHENS 2004 Olympic Games Album
DYEAR=2004
DGENRE=Blues
TTITLE0=Avril Lavigne - Knockin' On Heaven's Door
TTITLE1=Destiny's Child - will i am - I Know
TTITLE2=Timbaland - Kiley Dean - Utada - By Your Side
TTITLE3=Tiziano Ferro - Jamelia - Universal Prayer
TTITLE4=Sting - Mariza - A Thousand Years
TTITLE5=Beres Hammond - Les Nubians - All The Way
TTITLE6=Mr G - Issues
TTITLE7=Earth Wind - Roots Manuva
TTITLE8=Wayne Wonder - Neneh Cherry - Eyes on the price
TTITLE9=Lenny Kravitz - Kadim Al Sahir - We Want Peace
TTITLE10=Macy Gray - Keziah Jones - Oh Yeah
TTITLE11=Moby - Public Enemy - MKLVFKWR
TTITLE12=Alice Cooper - Xzibit - Stand
TTITLE13=Herbert Groenemeyer - Cheb Mami-George Dalaras - Everlasting
TTITLE14=Brian Eno - Skin-Rahid Taha - Still Standing
TTITLE15=Trevor Horn - Yiannis Kotsiras-Tarkan - Pass The Flame (The Official Torch Relay Theme)
TTITLE16=Datendreck
EXTD=YEAR: 2004
EXTT0=
EXTT1=
EXTT2=
EXTT3=
EXTT4=
EXTT5=
EXTT6=
EXTT7=
EXTT8=
EXTT9=
EXTT10=
EXTT11=
EXTT12=
EXTT13=
EXTT14=
EXTT15=
EXTT16=
PLAYORDER=
